<?xml version="1.0" standalone="no"?>
<!DOCTYPE svg PUBLIC "-//W3C//DTD SVG 20010904//EN"
 "http://www.w3.org/TR/2001/REC-SVG-20010904/DTD/svg10.dtd">
<svg version="1.0" xmlns="http://www.w3.org/2000/svg"
 width="700.000000pt" height="700.000000pt" viewBox="0 0 700.000000 700.000000"
 preserveAspectRatio="xMidYMid meet">
<metadata>
Created by potrace 1.14, written by Peter Selinger 2001-2017
</metadata>
<g transform="translate(0.000000,700.000000) scale(0.100000,-0.100000)"
fill="#000000" stroke="none">
<path d="M1023 5613 c9 -2 25 -2 35 0 9 3 1 5 -18 5 -19 0 -27 -2 -17 -5z"/>
<path d="M1175 5594 c738 -124 1293 -303 1621 -523 202 -135 255 -254 152
-347 -32 -30 -79 -52 -326 -155 -226 -94 -599 -272 -756 -361 -333 -188 -533
-360 -620 -531 -28 -56 -31 -71 -31 -152 0 -79 4 -97 29 -146 60 -119 171
-228 367 -359 121 -82 290 -178 669 -380 594 -317 843 -474 1079 -683 183
-162 331 -373 382 -546 7 -23 18 -45 23 -47 6 -2 561 -3 1234 -2 l1223 3 -82
120 c-130 191 -233 318 -394 483 -543 560 -1169 907 -2240 1242 -563 176 -708
233 -781 308 -88 91 -34 192 184 345 78 56 276 170 502 292 187 100 315 188
411 284 133 133 172 236 134 352 -24 72 -138 186 -251 252 -288 167 -803 314
-1514 431 -332 55 -820 117 -1025 130 l-80 6 90 -16z"/>
</g>
</svg>
